Coordinates
version=1
nRows=34
nColumns=19
inDegrees=yes

Units are S.I. units (second, meters, Newtons, ...)
If the header above contains a line with 'inDegrees', this indicates whether rotational values are in degrees (yes) or radians (no).

endheader
time	pelvis_tilt	pelvis_list	pelvis_rotation	pelvis_tx	pelvis_ty	pelvis_tz	hip_flexion_r	hip_adduction_r	hip_rotation_r	knee_angle_r	knee_angle_r_beta	ankle_angle_r	hip_flexion_l	hip_adduction_l	hip_rotation_l	knee_angle_l	knee_angle_l_beta	ankle_angle_l
     13.50666667	     -2.31392461	      5.86974077	     -1.15220975	      2.18701631	      0.88579223	      0.93392555	    -24.83443819	     -9.96244792	     -8.63227550	     70.49564856	      1.23038118	    -12.66166134	     29.10217973	      7.27740271	    -10.48331795	     10.88159348	      0.18991963	      8.32972873
     13.51333333	     -1.96012696	      5.89695732	     -0.27774512	      2.18517929	      0.88261293	      0.93533097	    -23.43056137	     -8.50265907	     -7.31527654	     75.34387195	      1.31499864	    -13.88713106	     29.00392723	      7.35661904	    -10.94422081	     13.63776808	      0.23802396	      7.99131103
     13.52000000	     -1.58735535	      6.00693693	      0.78559296	      2.18336843	      0.87886121	      0.93661159	    -22.09325475	     -7.29345189	     -6.83975085	     80.05863240	      1.39728673	    -15.03060504	     28.96845530	      7.51066230	    -11.26587227	     16.91068844	      0.29514719	      7.61220898
     13.52666667	     -1.21319636	      6.17728229	      2.00741427	      2.18151380	      0.87453478	      0.93767888	    -20.77509447	     -6.34970589	     -7.02061794	     84.63580444	      1.47717345	    -15.97525266	     28.99749798	      7.72135853	    -11.37894283	     20.60341720	      0.35959747	      7.25980904
     13.53333333	     -0.37713791	      6.71675913	      3.28899805	      2.17974165	      0.87023883	      0.93842229	    -20.07125822	     -6.09590345	     -7.86891497	     88.97559431	      1.55291707	    -16.73839775	     28.40202387	      8.30644392	    -11.40000579	     24.31235838	      0.42433070	      6.99888531
     13.54000000	     -0.52397915	      6.60743060	      4.74058185	      2.17737114	      0.86474193	      0.93887277	    -17.97868197	     -5.31116731	     -8.64575112	     93.41752989	      1.63044348	    -17.20382277	     29.08073709	      8.32876087	    -10.71565621	     28.56954999	      0.49863271	      7.24561386
     13.54666667	     -0.23128846	      6.80835991	      6.15036955	      2.17498326	      0.85959554	      0.93894492	    -16.41524547	     -5.16407069	     -9.72831560	     97.61386174	      1.70368328	    -17.47340925	     29.08354082	      8.70159774	     -9.91998694	     32.61152452	      0.56917848	      7.80470114
     13.55333333	      0.16185878	      6.98836545	      7.55092683	      2.17232077	      0.85465522	      0.93865792	    -14.86636926	     -5.20194256	    -10.83275124	    101.63121755	      1.77379937	    -17.51790940	     28.86057183	      9.12317793	     -8.81191274	     36.55833032	      0.63806323	      8.86685795
     13.56000000	      0.81383102	      7.40051911	      8.68844041	      2.16954988	      0.85024149	      0.93821150	    -13.53677326	     -5.75339290	    -11.73308430	    105.45430876	      1.84052490	    -17.35187313	     28.09691043	      9.68997547	     -7.82495545	     40.17273879	      0.70114656	     10.38317097
     13.56666667	      0.93063028	      7.25292858	      9.96102067	      2.16626915	      0.84570228	      0.93733480	    -11.27848111	     -5.83046748	    -12.43516739	    109.13632269	      1.90478816	    -16.98956873	     27.89438392	      9.92893304	     -6.20200734	     43.74644230	      0.76351945	     12.34696453
     13.57333333	      0.95833645	      7.16276381	     10.85504490	      2.16290595	      0.84168104	      0.93642611	     -8.64982078	     -6.24828400	    -12.63729347	    112.65066428	      1.96612500	    -16.73852126	     27.48466555	     10.11031403	     -4.88803869	     46.83872286	      0.81748993	     14.57995698
     13.58000000	      1.33823355	      7.11665258	     11.54108978	      2.15943498	      0.83864047	      0.93551588	     -6.23948291	     -6.74981854	    -12.54674682	    115.79512974	      2.02100627	    -16.27117887	     26.37361894	     10.22009891	     -3.60590323	     49.43512469	      0.86280569	     17.05796570
     13.58666667	      1.70501203	      7.00189620	     11.98012807	      2.15608739	      0.83639929	      0.93466061	     -3.56297898	     -7.24655694	    -12.06012962	    118.55470179	      2.06916989	    -15.83284304	     24.92142379	     10.17094194	     -2.39957588	     51.43436334	      0.89769899	     19.68073700
     13.59333333	      3.33697742	      6.75112949	     12.92794426	      2.15473722	      0.83684396	      0.93349969	     -2.73093135	     -7.10298758	    -12.33764260	    119.78322002	      2.09061158	    -15.73314342	     21.54050249	      9.77461508	     -0.55327913	     52.81058045	      0.92171851	     22.36323550
     13.60000000	      6.10336804	      6.66681041	     13.90611300	      2.15461912	      0.83973784	      0.93228035	     -3.44381662	     -6.79895887	    -12.88540010	    119.90295319	      2.09270132	    -15.71053367	     16.30323117	      9.07541889	      1.46556140	     53.23937685	      0.92920242	     24.98272489
     13.60666667	      8.31426180	      6.28170139	     14.51605518	      2.15396832	      0.84252653	      0.93129660	     -3.12135513	     -6.33043152	    -12.94025051	    119.93282593	      2.09322269	    -15.47441486	     11.56202144	      7.89683144	      3.12587876	     53.14528054	      0.92756013	     27.29466086
     13.61333333	      9.82953076	      5.63726171	     14.79274037	      2.15279425	      0.84494659	      0.93038353	     -1.66441581	     -5.85291017	    -12.55930707	    119.94459368	      2.09342808	    -15.09495288	      7.49357042	      6.44605660	      4.31091299	     52.57313912	      0.91757438	     29.14751562
     13.62000000	     10.56380470	      4.76005954	     14.74042192	      2.15108935	      0.84681048	      0.92973126	      0.97945148	     -5.36775025	    -11.79491453	    119.94932478	      2.09351065	    -14.47599844	      4.24277988	      4.87689630	      5.00808969	     51.65597553	      0.90156685	     30.52184346
     13.62666667	     10.57652330	      3.89628434	     14.35974004	      2.14892178	      0.84804081	      0.92920800	      4.57089886	     -5.16585888	    -10.71645695	    119.94971818	      2.09351752	    -13.63890118	      1.66250512	      3.54761294	      5.25714086	     50.41149039	      0.87984649	     31.40217919
     13.63333333	      9.81176265	      3.04031558	     13.58939663	      2.14640154	      0.84849523	      0.92905411	      9.21168450	     -5.08342481	     -9.24733351	    119.94605706	      2.09345362	    -12.66584445	     -0.14896491	      2.47899574	      5.00249508	     48.98018785	      0.85486555	     31.72662531
     13.64000000	      7.95684548	      2.22221995	     12.53099345	      2.14364611	      0.84771593	      0.92925985	     15.20530634	     -5.10118643	     -7.47470378	    119.93694053	      2.09329451	    -11.64403972	     -0.77774635	      1.77098175	      4.36177461	     47.57193913	      0.83028697	     31.56074622
     13.64666667	      5.45026712	      1.85179433	     11.11157624	      2.14072745	      0.84594070	      0.92995821	     21.95225115	     -5.41916355	     -5.26537842	    119.91421559	      2.09289788	    -10.56287424	     -0.84402626	      1.69950909	      3.31588630	     46.05794006	      0.80386270	     30.79266753
     13.65333333	      2.49642100	      2.13857521	      9.41438491	      2.13786745	      0.84316771	      0.93100474	     29.17388448	     -6.06313025	     -2.54979011	    119.83571575	      2.09152780	     -9.54692005	     -0.55394465	      2.37332550	      1.84810821	     44.46905446	      0.77613142	     29.54790936
     13.66000000	      0.15726903	      2.59425631	      8.09590989	      2.13611636	      0.84144690	      0.93171862	     35.18704057	     -6.58515832	     -0.37987651	    118.97769944	      2.07655259	     -8.53055503	     -1.07537981	      3.03555138	      0.64491458	     42.55096438	      0.74265443	     27.66178310
     13.66666667	     -0.49666123	      2.05447627	      7.73813646	      2.13695655	      0.84404718	      0.93107066	     37.98447068	     -6.39665541	     -0.35074022	    116.20752107	      2.02820386	     -7.59989987	     -3.61597482	      2.31386615	      0.28115823	     39.93771176	      0.69704457	     25.00138486
     13.67333333	     -0.53104484	      1.23146588	      7.49530718	      2.13862038	      0.84805506	      0.93018483	     39.56645713	     -5.99943207	     -0.91342583	    112.75398807	      1.96792834	     -6.63221680	     -6.87394424	      1.17832727	     -0.22151094	     37.00988968	      0.64594443	     21.73173443
     13.68000000	     -0.60198973	      0.36628700	      7.38759154	      2.14057608	      0.85242360	      0.92911343	     40.85679662	     -5.70972771	     -1.74776046	    108.90352166	      1.90072502	     -5.71346663	     -9.98460889	     -0.00502322	     -0.85685712	     34.05823412	      0.59442832	     17.75675220
     13.68666667	     -0.63207604	     -0.54886974	      7.34004931	      2.14290140	      0.85712389	      0.92791793	     41.78370113	     -5.46472952	     -2.79627432	    104.68119834	      1.82703158	     -4.89253013	    -13.04809590	     -1.23702818	     -1.70427221	     31.06231096	      0.54213960	     13.24761637
     13.69333333	     -0.82273274	     -1.40733006	      7.16160844	      2.14544445	      0.86172984	      0.92690231	     42.68192494	     -5.18214131	     -3.77015278	    100.19504650	      1.74873346	     -4.11418849	    -15.84079259	     -2.33254374	     -2.95037673	     28.10426120	      0.49051189	      8.32653131
     13.70000000	     -0.89096532	     -2.28146250	      7.09531710	      2.14817192	      0.86657030	      0.92578607	     43.14021542	     -4.95629703	     -4.96128362	     95.38127281	      1.66471726	     -3.35729137	    -18.61250035	     -3.44615555	     -4.33274665	     25.23547568	      0.44044214	      3.17109924
     13.70666667	     -1.31927502	     -3.00992701	      6.73494982	      2.15100423	      0.87085738	      0.92512553	     43.88265994	     -4.58211952	     -5.80100672	     90.39929905	      1.57776541	     -2.69782353	    -20.89589624	     -4.22352693	     -6.13751616	     22.52942421	      0.39321263	     -2.05973229
     13.71333333	     -1.43149253	     -3.68399734	      6.61197508	      2.15388639	      0.87535724	      0.92423978	     43.96207059	     -4.43288815	     -6.99065563	     85.15388345	      1.48621564	     -1.88723587	    -23.30329421	     -5.00847231	     -7.89662642	     20.07437476	      0.35036393	     -7.16332880
     13.72000000	     -1.99152223	     -4.25455897	      6.31799664	      2.15675993	      0.87912262	      0.92378309	     44.39569309	     -4.14263696	     -7.92367195	     79.72667296	      1.39149294	     -1.19574235	    -25.04413938	     -5.54031073	     -9.73916816	     17.98724616	      0.31393667	    -11.77325984
     13.72666667	     -2.43370868	     -4.68788767	      6.10640677	      2.15949163	      0.88264360	      0.92344927	     44.50318958	     -3.96137871	     -8.94023489	     74.14579423	      1.29408824	     -0.37257707	    -26.67673482	     -5.96735615	    -11.51115676	     16.33064351	      0.28502350	    -15.88151478
